<?xml version="1.0" encoding="UTF-8"?><svg xmlns="http://www.w3.org/2000/svg" xmlns:xlink="http://www.w3.org/1999/xlink" width="2080.0" height="1579.0" viewBox="-111.0 -30.0 2080.0 1579.0" version="1.1">
<rect x="-111.0" y="-30.0" width="2080.0" height="1579.0" fill="rgb(240,247,218)"/>
<polygon id="s115429780" points="-79.927795,0.0 1939.9956,0.0 1939.9902,1519.9998 -80.004456,1519.999 " fill="none" stroke-width="2.0" stroke="rgb(54,128,45)" stroke-dasharray="7.0 7.0">
<g id="t115429780">
<text xml:space="preserve" x="929.99554" y="765.496" font-family="Sans,Helvetica" fill="rgb(35,77,32)" font-size="14"/>
</g>
</polygon>
<g id="s184926174">
<polygon id="s184926174" points="20.0,120.0 1819.9995,120.0 1819.9998,360.0 19.999985,360.0 " fill="rgb(206,147,216)" stroke-width="2.0" stroke="rgb(54,128,45)"/>
<a xlink:href="https://rep-d.treba.ml/Nakopichennya-znan.html">
<g id="t184926174"/>
</a>
</g>
<g id="s94143935">
<polygon id="s94143935" points="20.000042,380.0 1819.9995,380.0 1819.9998,620.0 20.000027,620.0 " fill="rgb(121,134,203)" stroke-width="2.0" stroke="rgb(54,128,45)"/>
<g id="t94143935">
<text xml:space="preserve" x="919.9999" y="505.4961" font-family="Sans,Helvetica" fill="rgb(35,77,32)" font-size="14"/>
</g>
</g>
<g id="s260678054">
<polygon id="s260678054" points="19.999989,640.0 1819.9995,640.0 1819.9998,879.9999 19.999973,879.9999 " fill="rgb(41,182,246)" stroke-width="2.0" stroke="rgb(54,128,45)"/>
<g id="t260678054">
<text xml:space="preserve" x="919.9999" y="765.49603" font-family="Sans,Helvetica" fill="rgb(35,77,32)" font-size="14"/>
</g>
</g>
<g id="s85939340">
<polygon id="s85939340" points="20.000011,899.9999 1819.9994,899.9999 1819.9996,1140.0001 19.999996,1140.0001 " fill="rgb(156,204,101)" stroke-width="2.0" stroke="rgb(54,128,45)"/>
<g id="t85939340">
<text xml:space="preserve" x="919.9998" y="1025.4961" font-family="Sans,Helvetica" fill="rgb(35,77,32)" font-size="14"/>
</g>
</g>
<g id="s201816424">
<polygon id="s201816424" points="19.999939,1159.9999 1819.9995,1159.9999 1819.9998,1400.0001 19.999939,1400.0001 " fill="rgb(255,241,118)" stroke-width="2.0" stroke="rgb(54,128,45)"/>
<g id="t201816424">
<text xml:space="preserve" x="919.9998" y="1285.4961" font-family="Sans,Helvetica" fill="rgb(35,77,32)" font-size="14"/>
</g>
</g>
</svg>
